<svg width="1229" height="6291" viewBox="0 0 1229 6291" fill="none" xmlns="http://www.w3.org/2000/svg">
<line x1="1213" y1="4.37114e-08" x2="1213" y2="660" stroke="white" stroke-width="2"/>
<circle r="16" transform="matrix(1 0 0 -1 1212 677)" stroke="white" stroke-width="2"/>
<line x1="1213" y1="694" x2="1213" y2="1742" stroke="white" stroke-width="2"/>
<circle r="16" transform="matrix(1 0 0 -1 1212 1759)" stroke="white" stroke-width="2"/>
<line x1="1213" y1="1776" x2="1213" y2="2898" stroke="white" stroke-width="2"/>
<circle r="16" transform="matrix(1 0 0 -1 1212 2915)" stroke="white" stroke-width="2"/>
<line x1="1213" y1="2932" x2="1213" y2="4017" stroke="white" stroke-width="2"/>
<circle r="16" transform="matrix(1 0 0 -1 1212 4034)" stroke="white" stroke-width="2"/>
<path d="M1211.5 4051V4335.5C1211.5 4368.64 1184.64 4395.5 1151.5 4395.5H627" stroke="white" stroke-width="2"/>
<path d="M17 4876.5V4456C17 4422.86 43.8629 4396 77 4396H627.5" stroke="white" stroke-width="2"/>
<circle r="16" transform="matrix(1 0 0 -1 17 4894)" stroke="white" stroke-width="2"/>
<line x1="18" y1="5831" x2="18" y2="6257" stroke="white" stroke-width="2"/>
<line x1="18" y1="5371" x2="18" y2="5797" stroke="white" stroke-width="2"/>
<line x1="18" y1="4911" x2="18" y2="5337" stroke="white" stroke-width="2"/>
<circle r="16" transform="matrix(1 0 0 -1 17 5814)" stroke="white" stroke-width="2"/>
<circle r="16" transform="matrix(1 0 0 -1 17 6274)" stroke="white" stroke-width="2"/>
<circle r="16" transform="matrix(1 0 0 -1 17 5354)" stroke="white" stroke-width="2"/>
</svg>
